<?xml version="1.0" encoding="utf-8"?>
<!-- Generator: Adobe Illustrator 25.0.0, SVG Export Plug-In . SVG Version: 6.00 Build 0)  -->
<svg version="1.1" id="Layer_1" xmlns="http://www.w3.org/2000/svg" xmlns:xlink="http://www.w3.org/1999/xlink" x="0px" y="0px"
	 viewBox="0 0 500.8 76.9" style="enable-background:new 0 0 500.8 76.9;" xml:space="preserve">
<style type="text/css">
	.st0{fill:#5CBF8E;}
	.st1{fill:#105156;}
</style>
<g>
	<g>
		<g>
			<polygon class="st0" points="0,77.1 17.7,77.1 0,59.4 			"/>
		</g>
		<g>
			<polygon class="st0" points="480.2,0 462.5,0 480.2,17.7 			"/>
		</g>
		<g>
			<polygon class="st0" points="55.6,77.1 73.2,77.1 73.2,59.4 			"/>
		</g>
		<g>
			<polygon class="st0" points="57.9,15.3 36.6,36.6 15.3,15.3 0,0 0,26.2 0,30.2 36.6,66.8 73.2,30.2 73.2,26.2 73.2,0 			"/>
		</g>
	</g>
	<g>
		<path class="st1" d="M101.2,25.5h9.1l6,18.6l6-18.6h9.1v28.9h-6.8V37.2l-5.5,17.2h-5.6L108,37.2v17.2h-6.8V25.5z"/>
		<path class="st1" d="M149.7,25.5h7.4l10.8,28.9h-7.1l-2-5.5H148l-2,5.5h-7.1L149.7,25.5z M156.6,43l-3.2-8.9l-3.2,8.9H156.6z"/>
		<path class="st1" d="M175.3,25.5h7.4v10.3l9.8-10.3h9.1l-11.3,11.9l12.4,17h-8.9l-8.6-11.7l-2.6,2.8v8.9h-7.4V25.5z"/>
		<path class="st1" d="M209.8,25.5h7.4v22.5h13.4v6.4h-20.8V25.5z"/>
		<path class="st1" d="M238,25.5h22.8v6.4h-15.4V37h13.6v6h-13.6v5.1h15.8v6.4H238V25.5z"/>
		<path class="st1" d="M269.7,25.5h15.9c5.2,0,8.6,3.6,8.6,9.1c0,3.1-1.1,5.6-3.1,7.2c1.3,0.9,2.1,2.5,2.4,5.1l0.8,7.5h-7.2
			l-0.8-7.5c-0.2-1.9-1-3.2-2.5-3.2H277v10.7h-7.4V25.5z M284.5,37.9c1.5,0,2.5-1.3,2.5-3.2c0-1.9-1-3.2-2.5-3.2H277v6.4H284.5z"/>
		<path class="st1" d="M304.3,25.5h12c4.9,0,8.2,3.5,8.2,8.6c0,5.2-3.3,8.7-8.2,8.7h-9.3v11.6h-2.7V25.5z M316.3,40.4
			c3.3,0,5.5-2.5,5.5-6.2c0-3.7-2.2-6.2-5.5-6.2h-9.3v12.4H316.3z"/>
		<path class="st1" d="M334,25.5h2.7V52h16v2.4H334V25.5z"/>
		<path class="st1" d="M370.7,25.5h2.7l11.7,28.9h-2.8L379,46h-13.7l-3.4,8.4h-2.8L370.7,25.5z M378.1,43.6l-5.9-14.6l-5.9,14.6
			H378.1z"/>
		<path class="st1" d="M394.2,25.5h2.7l16.7,24.4V25.5h2.7v28.9h-2.7l-16.7-24.4v24.4h-2.7V25.5z"/>
	</g>
	<g>
		<path class="st1" d="M437.4,76.7l-0.5-1.7c-0.8,1.3-2.1,2-3.8,2c-1.8,0-3.3-0.6-4.5-1.9c-1.2-1.2-1.8-2.8-1.8-4.7s0.6-3.5,1.9-4.7
			c1.3-1.2,2.8-1.9,4.6-1.9c1.2,0,2.3,0.3,3.3,0.8c1,0.6,1.7,1.3,2.2,2.2l-1.8,1.3c-0.8-1.5-2-2.3-3.8-2.3c-1.1,0-2.1,0.4-2.9,1.2
			c-0.8,0.8-1.2,1.9-1.2,3.2c0,1.3,0.4,2.3,1.1,3.1c0.7,0.8,1.7,1.2,2.8,1.2c1,0,1.8-0.3,2.4-0.8c0.6-0.5,0.9-1.2,1.1-2h-4.1v-1.9
			h6.4v6.7H437.4z"/>
		<path class="st1" d="M454.9,70.4v6.2h-2.3v-5.5c0-1.1-0.5-1.7-1.4-1.7c-0.5,0-0.9,0.2-1.3,0.6c-0.3,0.4-0.5,0.9-0.5,1.7v5h-2.3
			v-5.5c0-1.1-0.5-1.7-1.4-1.7c-0.5,0-0.9,0.2-1.2,0.6c-0.3,0.4-0.5,0.9-0.5,1.6v5h-2.3v-8.9h2.3v1.2c0.6-1,1.5-1.4,2.6-1.4
			c1.2,0,2.1,0.5,2.5,1.5c0.6-1,1.6-1.5,2.8-1.5c0.9,0,1.6,0.3,2.1,0.8C454.7,68.8,454.9,69.5,454.9,70.4z"/>
		<path class="st1" d="M457.8,76.7V64.1h2.3v4.8c0.7-0.9,1.7-1.4,2.9-1.4c1.2,0,2.3,0.4,3.1,1.3c0.8,0.8,1.2,2,1.2,3.4
			c0,1.4-0.4,2.6-1.2,3.4s-1.8,1.3-3.1,1.3c-1.3,0-2.2-0.5-2.9-1.4v1.1H457.8z M460.6,74.1c0.5,0.5,1.1,0.7,1.8,0.7
			c0.7,0,1.3-0.2,1.8-0.7c0.5-0.5,0.7-1.1,0.7-1.9c0-0.8-0.2-1.4-0.7-1.9c-0.5-0.5-1.1-0.7-1.8-0.7c-0.7,0-1.3,0.2-1.8,0.7
			c-0.5,0.5-0.7,1.1-0.7,1.9C459.9,73,460.1,73.6,460.6,74.1z"/>
		<path class="st1" d="M469.9,76.7V64.1h2.4v5.1h5.5v-5.1h2.4v12.6h-2.4v-5.3h-5.5v5.3H469.9z"/>
	</g>
</g>
<g id="Page-1">
	<g id="_x30_24---Registered-Trademark">
		<path class="st0" d="M495.5,0c-2.9,0-5.3,2.4-5.3,5.3s2.4,5.3,5.3,5.3c2.9,0,5.3-2.4,5.3-5.3S498.4,0,495.5,0z M495.5,9.6
			c-2.3,0-4.2-1.9-4.2-4.2s1.9-4.2,4.2-4.2c2.3,0,4.2,1.9,4.2,4.2S497.8,9.6,495.5,9.6z"/>
		<path id="Shape" class="st0" d="M497.9,7.6l-1-1.9c0.2-0.1,0.3-0.2,0.5-0.3c0.4-0.4,0.5-0.9,0.5-1.4c-0.1-0.9-0.9-1.6-1.8-1.6
			h-2.2c-0.1,0-0.2,0.1-0.2,0.2v5.1c0,0.1,0.1,0.2,0.2,0.2h0.9c0.1,0,0.2-0.1,0.2-0.2V5.9h0.6l1,1.9c0,0.1,0.1,0.1,0.2,0.1h1
			c0.1,0,0.1,0,0.2-0.1C498,7.8,498,7.7,497.9,7.6L497.9,7.6z M496.1,4.8h-1.2V3.5h1.2c0.4,0,0.6,0.3,0.6,0.6S496.5,4.8,496.1,4.8z"
			/>
	</g>
</g>
</svg>
